<svg width="30" height="25" viewBox="0 0 30 25" fill="none" xmlns="http://www.w3.org/2000/svg">
    <path d="M16.875 0.125C13.5929 0.125 10.4453 1.42879 8.12455 3.74955C5.80379 6.07032 4.5 9.21795 4.5 12.5H0.375L5.72375 17.8488L5.82 18.0413L11.375 12.5H7.25C7.25 7.17875 11.5538 2.875 16.875 2.875C22.1962 2.875 26.5 7.17875 26.5 12.5C26.5 17.8212 22.1962 22.125 16.875 22.125C14.2213 22.125 11.815 21.0388 10.0825 19.2925L8.13 21.245C9.27594 22.3973 10.6387 23.3113 12.1396 23.9343C13.6405 24.5573 15.2499 24.877 16.875 24.875C20.1571 24.875 23.3047 23.5712 25.6254 21.2504C27.9462 18.9297 29.25 15.7821 29.25 12.5C29.25 9.21795 27.9462 6.07032 25.6254 3.74955C23.3047 1.42879 20.1571 0.125 16.875 0.125ZM15.5 7V13.875L21.385 17.3675L22.375 15.7037L17.5625 12.8438V7H15.5Z" fill="#2081C3"/>
</svg>
    