<svg width="22" height="23" viewBox="0 0 22 23" fill="none" xmlns="http://www.w3.org/2000/svg">
    <path d="M1.53031 3.26562C1.4429 3.34139 1.37268 3.43494 1.32434 3.54003C1.276 3.64512 1.25065 3.75932 1.25 3.875V20.9375C1.25 21.153 1.3356 21.3596 1.48798 21.512C1.64035 21.6644 1.84701 21.75 2.0625 21.75C2.27799 21.75 2.48465 21.6644 2.63702 21.512C2.7894 21.3596 2.875 21.153 2.875 20.9375V16.4454C5.59586 14.2963 7.93992 15.4552 10.6395 16.7917C12.3051 17.6154 14.0987 18.503 16.0223 18.503C17.437 18.503 18.9209 18.0206 20.4727 16.6749C20.5601 16.5992 20.6304 16.5056 20.6787 16.4005C20.727 16.2954 20.7524 16.1812 20.753 16.0655V3.875C20.7527 3.71904 20.7074 3.56649 20.6227 3.43555C20.538 3.30461 20.4174 3.20082 20.2753 3.13657C20.1332 3.07232 19.9756 3.05032 19.8213 3.07321C19.6671 3.09609 19.5226 3.16289 19.4053 3.26562C16.5616 5.72648 14.1525 4.53414 11.3605 3.15187C8.46805 1.71781 5.18859 0.0958552 1.53031 3.26562ZM19.125 15.6816C16.4041 17.8307 14.0601 16.6709 11.3605 15.3353C8.82148 14.081 5.99703 12.6815 2.875 14.4822V4.25992C5.59586 2.11086 7.93992 3.26968 10.6395 4.60523C13.1785 5.85953 16.004 7.25906 19.125 5.45835V15.6816Z" fill="#2081C3" stroke="#2081C3"/>
    </svg>
    