<svg width="32" height="32" viewBox="0 0 32 32" fill="none" xmlns="http://www.w3.org/2000/svg">
    <g clip-path="url(#clip0_511_277)">
    <path d="M12.2533 18.6267V9.02666L19.7133 4.71999C23.8466 2.33333 31.2466 8.21999 28.14 13.6067" stroke="#2081C3" stroke-width="3" stroke-linejoin="round"/>
    <path d="M12.2533 13.96L20.5666 9.16L28.0266 13.4667C32.16 15.8533 30.76 25.2067 24.54 25.2067" stroke="#2081C3" stroke-width="3" stroke-linejoin="round"/>
    <path d="M16.2933 11.6267L24.6066 16.4267V25.0467C24.6066 29.82 15.8066 33.2867 12.7 27.9" stroke="#2081C3" stroke-width="3" stroke-linejoin="round"/>
    <path d="M20.3333 14.1333V23.56L12.8733 27.8667C8.73997 30.2533 1.33997 24.3667 4.44664 18.98" stroke="#2081C3" stroke-width="3" stroke-linejoin="round"/>
    <path d="M20.3334 18.6267L12.02 23.4267L4.56002 19.12C0.420024 16.7267 1.82002 7.38 8.04002 7.38" stroke="#2081C3" stroke-width="3" stroke-linejoin="round"/>
    <path d="M16.2933 20.96L7.97998 16.16V7.54C7.97998 2.76667 16.78 -0.699997 19.8866 4.68667" stroke="#2081C3" stroke-width="3" stroke-linejoin="round"/>
    </g>
    <defs>
    <clipPath id="clip0_511_277">
    <rect width="32" height="32" fill="white"/>
    </clipPath>
    </defs>
    </svg>
    